<svg id="Layer_1" data-name="Layer 1" xmlns="http://www.w3.org/2000/svg" viewBox="0 0 1000 336.41"><defs><style>.cls-1{opacity:0.9;}.cls-2{fill:#226db4;}.cls-3{fill:#e42527;}.cls-4{font-size:165.59px;font-family:ZohoPuvi-Semibold, Zoho Puvi;font-weight:600;}</style></defs><title>Catalyst-Logo</title><g class="cls-1"><path class="cls-2" d="M172.42,336.41l-157.64-91A29.66,29.66,0,0,1,0,219.79V189.32a29.7,29.7,0,0,1,12.13-23.89l85.21-62.2,64.4,37.18L80.67,199.6l91.75,53v83.83ZM98.59,126.72,23.76,181.36a9.87,9.87,0,0,0-4.05,8v30.47a9.9,9.9,0,0,0,4.93,8.54l128.07,73.94V264L62.07,211.63a13.15,13.15,0,0,1-1.18-22l64.77-47.29Z"/></g><g class="cls-1"><path class="cls-3" d="M187.33,234.45l-64.4-37.18,81-59.15L109.89,83.83V0l158,91.19a29.66,29.66,0,0,1,14.78,25.61v33.05a29.67,29.67,0,0,1-12.13,23.89ZM159,195.34,186.07,211l72.8-53.15a9.87,9.87,0,0,0,4.05-8v-33a9.87,9.87,0,0,0-4.93-8.53L129.61,34.14v38.3l92.94,53.65h0a13.13,13.13,0,0,1,1.18,22Zm53.69-52.18Z"/></g><text class="cls-4" transform="translate(360.28 220.66)">Catalyst</text></svg>