<svg xmlns="http://www.w3.org/2000/svg" xmlns:xlink="http://www.w3.org/1999/xlink" viewBox="0 0 429.85 271.82"><defs><style>.cls-1,.cls-20,.cls-21,.cls-29,.cls-30,.cls-31,.cls-33,.cls-35,.cls-42,.cls-44,.cls-45,.cls-46,.cls-47,.cls-49,.cls-50,.cls-51,.cls-52,.cls-53,.cls-54{fill:none;}.cls-2{isolation:isolate;}.cls-3{fill:#8089ff;opacity:0.2;}.cls-4{opacity:0.08;}.cls-5{opacity:0.35;fill:url(#linear-gradient);}.cls-6{fill:url(#linear-gradient-2);}.cls-7{fill:#f4b534;}.cls-8{fill:#efb938;}.cls-9{fill:url(#linear-gradient-3);}.cls-10{fill:url(#linear-gradient-4);}.cls-11{fill:#e5b15a;}.cls-12{fill:#b5852c;}.cls-13{fill:#634a16;opacity:0.18;}.cls-14{clip-path:url(#clip-path);}.cls-15{fill:#df8374;}.cls-16{fill:#e59780;}.cls-17{fill:#fff;}.cls-18{fill:#523bff;}.cls-18,.cls-20{opacity:0.23;}.cls-19{fill:#30dd26;}.cls-20,.cls-21{stroke:#523bff;}.cls-20,.cls-21,.cls-29,.cls-30,.cls-31,.cls-33,.cls-35,.cls-42,.cls-53,.cls-54{stroke-miterlimit:10;}.cls-21{opacity:0.12;}.cls-22{fill:#152023;}.cls-23{fill:#cccfe2;}.cls-24{fill:#ecb79f;}.cls-25{fill:#dcdeef;}.cls-26{fill:#24363d;}.cls-27{fill:#060b0c;opacity:0.27;mix-blend-mode:overlay;}.cls-28{fill:#4c38ea;}.cls-29,.cls-54{stroke:#4c38ea;}.cls-30,.cls-31,.cls-42{stroke:#fff;}.cls-30{stroke-width:3px;opacity:0.21;}.cls-31,.cls-42,.cls-44,.cls-46,.cls-47,.cls-49,.cls-51,.cls-52{stroke-linecap:round;}.cls-32{opacity:0.69;}.cls-33{stroke:#caceff;}.cls-34{fill:#caceff;}.cls-35{stroke:#a2a4ff;}.cls-36{fill:#a2a4ff;}.cls-37{opacity:0.8;}.cls-38{fill:#ffc91d;}.cls-39{fill:#825922;}.cls-40{fill:#ff4d4d;}.cls-41{fill:#1aa82d;}.cls-42,.cls-54{stroke-width:2px;}.cls-42{opacity:0.68;}.cls-43{opacity:0.32;}.cls-44,.cls-47{stroke:#adc179;}.cls-44,.cls-45{stroke-miterlimit:4;}.cls-45,.cls-50{stroke:#fecc2f;}.cls-46{stroke:#49c5a0;}.cls-48{opacity:0.4;}.cls-49{stroke:#79c19a;}.cls-49,.cls-50{stroke-miterlimit:4;}.cls-51{stroke:#ff8db9;}.cls-52{stroke:#c0dd64;}.cls-53{stroke:#6266f5;}</style><linearGradient id="linear-gradient" x1="75.64" y1="240.46" x2="325.06" y2="240.46" gradientUnits="userSpaceOnUse"><stop offset="0" stop-opacity="0"/><stop offset="1"/></linearGradient><linearGradient id="linear-gradient-2" x1="213.91" y1="285.29" x2="213.91" y2="174.82" gradientUnits="userSpaceOnUse"><stop offset="0" stop-color="#ffbf39"/><stop offset="1" stop-color="#c2902c"/></linearGradient><linearGradient id="linear-gradient-3" x1="213.91" y1="170.64" x2="214.2" y2="150.96" gradientUnits="userSpaceOnUse"><stop offset="0" stop-color="#ffdd9e"/><stop offset="1" stop-color="#c2a169"/></linearGradient><linearGradient id="linear-gradient-4" x1="213.91" y1="170.25" x2="214.19" y2="150.93" xlink:href="#linear-gradient-2"/><clipPath id="clip-path"><path class="cls-1" d="M161.4,162.37H263.87S375.94,16.19,374.58,15.8s-301,20.84-301,20.84Z"/></clipPath></defs><g class="cls-2"><g id="Layer_2" data-name="Layer 2"><g id="Layer_1-2" data-name="Layer 1"><path id="Path" class="cls-3" d="M429.66,223.39a26.83,26.83,0,0,1-1.13,5.2,41.23,41.23,0,0,1-5.68,11.21c-10.84,14.67-48.27,17.12-48.27,17.12-27.68,1.81-27.3-3.21-50.23-1.86-29.61,1.74-32,10.23-61.4,10.79-16.55.31-17.11-2.35-39.07-2.61-19.67-.23-31.72,1.77-47.37,3.54-44.44,5-69,7.79-96.6,1-20.52-5-46.95-11.47-52.86-29.51-8.93-27.25,40.78-45,37.6-88.58-1.38-18.95-9.82-35.62-2.77-60.24a33.78,33.78,0,0,1,6.45-11.91c14.31-17.71,40-26.17,66-30.08,25.38-3.82,51.5-3.58,76.74-8,41.21-7.16,81.11-26.42,122.71-20.92,40.81,5.37,73.92,37.46,73.9,71.58,0,24-13.16,47.76-5.61,71.64C408.62,182.53,432.2,200.86,429.66,223.39Z"/><ellipse class="cls-4" cx="204.4" cy="250.31" rx="175.58" ry="3.29"/><polygon class="cls-5" points="76.36 227.86 275.78 233.4 275.78 253.06 26.36 253.06 76.36 227.86"/><rect class="cls-6" x="152.03" y="178.27" width="123.75" height="74.79"/><rect class="cls-7" x="144.41" y="170.86" width="139" height="8.36"/><rect class="cls-8" x="144.41" y="170.73" width="139" height="8.36"/><polygon class="cls-9" points="272.95 149.83 154.86 149.83 144.41 170.73 283.4 170.73 272.95 149.83"/><polygon class="cls-10" points="272.35 149.83 155.46 149.83 145.12 170.33 282.69 170.33 272.35 149.83"/><polygon class="cls-11" points="255.34 158.19 172.46 158.19 170.39 162.48 257.37 162.48 255.34 158.19"/><polygon class="cls-12" points="255.52 158.19 172.29 158.19 170.44 162.37 257.37 162.37 255.52 158.19"/><polygon class="cls-13" points="186.71 162.96 173.75 158.19 177.93 149.83 189.63 149.83 195.08 162.37 186.71 162.96"/><g class="cls-14"><path class="cls-15" d="M244.46,126.21s1.8-4,.51-5.69a31.55,31.55,0,0,0-3.78-3.34s7.84-5.73,5.27-11.7-8.67-9.93-14.55-9-9.13,6.42-9.27,6.87-2.87,14.16-2.82,15.43,10.73,14.38,11.52,14.76,2.92-1.15,2.5-4.4-4.21-9.62-4.21-9.62a56.91,56.91,0,0,1,3.63,4.73,57,57,0,0,0,4.46,6.37c.44.28,2.36-.83,2.48-2.71s-.88-4.28-.54-4.12S243.73,127.07,244.46,126.21Z"/><path class="cls-16" d="M215.77,122.65c.24,2.07-2.05,4.88-2.78,4.16a47.48,47.48,0,0,1-4.2-5.37c-.31-.7.91-13.26,1.13-16a7,7,0,0,1,2.59-5.37c.69-.5,4.22-2.77,7.81-5l11.28,6.75c-4.4,2.08-15,5.19-15,5.19,0,4.47-2.59,10.78-2.59,10.78A17.76,17.76,0,0,1,215.77,122.65Z"/><rect class="cls-17" x="180.61" y="102.05" width="55.21" height="74" rx="3.82" transform="translate(-33.09 72.27) rotate(-18.27)"/><rect class="cls-18" x="187.18" y="112.11" width="34.13" height="3.36" rx="1.31" transform="translate(-25.37 69.75) rotate(-18.27)"/><rect class="cls-18" x="189.92" y="121.29" width="23.09" height="3.36" rx="1.31" transform="translate(-28.39 69.35) rotate(-18.27)"/><rect class="cls-18" x="193.51" y="131.27" width="34.13" height="3.36" rx="1.31" transform="translate(-31.06 72.7) rotate(-18.27)"/><rect class="cls-18" x="196.25" y="140.45" width="23.09" height="3.36" rx="1.31" transform="translate(-34.08 72.29) rotate(-18.27)"/><rect class="cls-18" x="200.18" y="151.5" width="34.13" height="3.36" rx="1.31" transform="translate(-37.07 75.82) rotate(-18.27)"/><rect class="cls-18" x="202.92" y="160.68" width="23.09" height="3.36" rx="1.31" transform="translate(-40.09 75.41) rotate(-18.27)"/><polygon class="cls-19" points="185.55 144.91 187.99 146.7 191.74 139.9 187.72 145.12 185.55 144.91"/><rect class="cls-20" x="178.33" y="120.1" width="6.88" height="6.88" transform="translate(-29.56 63.2) rotate(-18.27)"/><rect class="cls-21" x="185.22" y="140.98" width="6.88" height="6.88" transform="translate(-35.76 66.41) rotate(-18.27)"/><rect class="cls-20" x="191.94" y="161.33" width="6.88" height="6.88" transform="translate(-41.8 69.55) rotate(-18.27)"/><path class="cls-22" d="M262,82.87a1.69,1.69,0,0,0,0,.76l.51-.23Z"/><polygon class="cls-22" points="271.25 107.62 272.25 108.87 272.06 107.36 271.25 107.62"/><path class="cls-23" d="M268.49,108.52s-.59-.19-1.29-2l1.13-.93S268.53,108.33,268.49,108.52Z"/><path class="cls-23" d="M259.27,84.8a8.06,8.06,0,0,0,1.18,4.25l1.41-.45S259.57,85.11,259.27,84.8Z"/><path class="cls-16" d="M273.71,103.54c-5.94.48-8.59,5.41-13.75,9.19s-11.73,4.48-16.75,5.26-14.67,8.47-17.15,10.06-6.2,2.19-8.14-.23c-1.82-2.26-.93-4,.9-6.22s9.76-6.39,14.52-9a11.53,11.53,0,0,0,5.75-6.84,9.8,9.8,0,0,0-6.21-4.68,10.1,10.1,0,0,1-1.28.7L220.32,95c2.77-1.75,5.58-3.5,7.16-4.44,3.63-2.13,4.74-2.08,11.15-1.5a141,141,0,0,0,21,.18c1.55-.18,8.24-3.37,8.24-3.37Z"/><path class="cls-24" d="M218.37,123.75c.86-1.15,2.53-2.56,3.73-2.42a2.89,2.89,0,0,1,2.68,2.39c.55,1.78-.95,3-2.3,3.7s-2.28,1.11-3.09.13S217.7,124.66,218.37,123.75Z"/><path class="cls-24" d="M230.47,115.28a1.57,1.57,0,0,1,.88.21,1,1,0,0,1,.45.88,6.85,6.85,0,0,0,.14,1.66,3.38,3.38,0,0,0,.88,1.36,4.78,4.78,0,0,1,.86,1.56,11,11,0,0,0-1.14-1.3,6.29,6.29,0,0,1-.64-.63,2.51,2.51,0,0,1-.44-.86,4.62,4.62,0,0,1,0-1.81C231.54,115.85,231,115.44,230.47,115.28Z"/><path class="cls-24" d="M229,116.32a4.49,4.49,0,0,1,1.24.89,2.2,2.2,0,0,1,.48.66,4,4,0,0,1,.15.78,1.63,1.63,0,0,0,.63,1.13,5.4,5.4,0,0,1,.9,1.23c-.4-.32-.77-.65-1.15-.94a1.85,1.85,0,0,1-.6-.56,2.08,2.08,0,0,1-.27-.78,6.23,6.23,0,0,0-.1-.69,2.45,2.45,0,0,0-.33-.58C229.63,117.07,229.3,116.7,229,116.32Z"/><path class="cls-24" d="M228,117.2a9.13,9.13,0,0,1,2.09,2.07,6.82,6.82,0,0,1,.77,1.27,3.61,3.61,0,0,1,.4,1.43,9.4,9.4,0,0,0-.73-1.24c-.28-.39-.55-.78-.84-1.16C229.1,118.79,228.5,118,228,117.2Z"/><path class="cls-25" d="M259.27,84.8s9.36,12.22,9.22,23.72l4-1.27S270.37,93,263,83.18Z"/><path class="cls-26" d="M272.25,108.87s-1.53-16-10.22-26L291.7,71.38s8.28,5.26,10.83,25.77Z"/><path class="cls-27" d="M272.25,108.87l-.19-1.51-3.57,1.16-.16-3,3.3-1,30.3-11.68s.47,2.69.6,4.23Z"/></g><circle class="cls-28" cx="387.89" cy="90.38" r="27.43"/><circle class="cls-29" cx="391.42" cy="90.08" r="33.77"/><path class="cls-30" d="M387.89,70.33a20,20,0,1,1,0,40.09"/><circle class="cls-17" cx="385.72" cy="92.01" r="3.69"/><line class="cls-31" x1="385.19" y1="73.54" x2="385.19" y2="90.42"/><line class="cls-31" x1="409.06" y1="102.83" x2="386.37" y2="92.06"/><g class="cls-32"><circle class="cls-33" cx="330.63" cy="21.73" r="6.91"/><circle class="cls-34" cx="330.63" cy="21.73" r="4.5"/></g><line class="cls-35" x1="130.88" y1="50.4" x2="134.4" y2="53.6"/><line class="cls-35" x1="140.19" y1="47.33" x2="139.39" y2="51.64"/><line class="cls-35" x1="147.6" y1="54" x2="143.13" y2="55.15"/><line class="cls-35" x1="145.51" y1="63.51" x2="141.93" y2="60.26"/><line class="cls-35" x1="136.39" y1="66.36" x2="137.19" y2="61.94"/><line class="cls-35" x1="128.74" y1="59.59" x2="133.39" y2="58.49"/><polygon class="cls-36" points="0.02 80.34 0 80.36 0.04 80.36 0.02 80.34"/><g class="cls-37"><path class="cls-38" d="M198.56,215.19c0,.11,0,.22,0,.32a18.93,18.93,0,0,0,5.56,13.42L217.86,216Z"/><path class="cls-39" d="M217.53,196.54a18.87,18.87,0,0,0-11.86,4.17L217.88,216l13.17,12.83a19,19,0,0,0-13.52-32.27Z"/><path class="cls-40" d="M217.88,216l-13.77,13a19,19,0,0,0,26.94-.12Z"/><path class="cls-41" d="M203.69,197.78a22.44,22.44,0,0,0-8.66,17.6l22.88.61Z"/></g><path class="cls-28" d="M16.63,78.3S46.5,68.08,56.72,57.59c0,0,18.35,35.64,34.86,39.05L50.43,126.78S27.37,108.43,16.63,78.3Z"/><line class="cls-42" x1="57.25" y1="74.89" x2="35.24" y2="87.99"/><line class="cls-42" x1="63.38" y1="84.48" x2="41.79" y2="98.21"/><line class="cls-42" x1="64.85" y1="97.26" x2="48.67" y2="107.58"/><g id="Group_793" data-name="Group 793" class="cls-43"><rect id="Rectangle_1286" data-name="Rectangle 1286" class="cls-44" x="152.3" y="77.62" width="6.05" height="6.72" rx="2.53" transform="translate(0.09 162.14) rotate(-55.14)"/><g id="Ellipse_337" data-name="Ellipse 337"><circle class="cls-1" cx="89.7" cy="148.4" r="3.65"/><circle class="cls-45" cx="89.7" cy="148.4" r="3.02"/></g><path id="Path_2261" data-name="Path 2261" class="cls-46" d="M119.2,97.61a6.49,6.49,0,0,1,4,8.26"/><g id="Group_794" data-name="Group 794"><line id="Line_824" data-name="Line 824" class="cls-47" x1="152.19" y1="131.61" x2="145.89" y2="130.74"/><line id="Line_825" data-name="Line 825" class="cls-47" x1="148.6" y1="134.32" x2="149.47" y2="128.02"/></g></g><g id="Group_795" data-name="Group 795" class="cls-48"><path id="Rectangle_1286-2" data-name="Rectangle 1286-2" class="cls-49" d="M310.68,74.33l1.52.59a2.44,2.44,0,0,1,1.23,3.36l-.43,1a2.75,2.75,0,0,1-3.42,1.55l-1.53-.59a2.46,2.46,0,0,1-1.23-3.36l.43-1A2.76,2.76,0,0,1,310.68,74.33Z"/><g id="Ellipse_337-2" data-name="Ellipse 337-2"><ellipse class="cls-1" cx="312.36" cy="111.29" rx="3.91" ry="3.57" transform="translate(27.07 280.29) rotate(-50.25)"/><ellipse class="cls-50" cx="312.36" cy="111.29" rx="3.23" ry="2.95" transform="translate(27.07 280.29) rotate(-50.25)"/></g><path id="Path_2261-2" data-name="Path 2261-2" class="cls-51" d="M267,58.2a6.06,6.06,0,0,1,5.46,7.21"/><g id="Group_794-2" data-name="Group 794-2"><line id="Line_824-2" data-name="Line 824-2" class="cls-52" x1="359.31" y1="128.8" x2="352.84" y2="129.57"/><line id="Line_825-2" data-name="Line 825-2" class="cls-52" x1="356.17" y1="132.46" x2="355.98" y2="125.92"/></g></g><path class="cls-36" d="M243.15,4.73a17.72,17.72,0,0,1,1.73,3.42,16.57,16.57,0,0,1,1,3.69,17.17,17.17,0,0,1-1.73-3.42A17,17,0,0,1,243.15,4.73Z"/><path class="cls-36" d="M263.68,6.51a18.85,18.85,0,0,1-2.51,3.16,18.35,18.35,0,0,1-3,2.65,18.79,18.79,0,0,1,2.5-3.16A18.9,18.9,0,0,1,263.68,6.51Z"/><path class="cls-36" d="M269.29,24.89a21.08,21.08,0,0,1-4.21-.39A21.09,21.09,0,0,1,261,23.39a20.3,20.3,0,0,1,4.21.38A21.12,21.12,0,0,1,269.29,24.89Z"/><path class="cls-36" d="M256.89,39a17.83,17.83,0,0,1-1.8-3.5A18.39,18.39,0,0,1,254,31.7a18,18,0,0,1,1.8,3.49A18.66,18.66,0,0,1,256.89,39Z"/><path class="cls-36" d="M259,3.21a4.5,4.5,0,0,1,1,.58,4.89,4.89,0,0,1,.86.78,4.74,4.74,0,0,1-1-.58A5.27,5.27,0,0,1,259,3.21Z"/><path class="cls-36" d="M264.33,0a6.11,6.11,0,0,1-.07,1.28A6,6,0,0,1,264,2.51,6,6,0,0,1,264,1.24,6.62,6.62,0,0,1,264.33,0Z"/><path class="cls-36" d="M268.78,3.8a5.56,5.56,0,0,1-1.09.66,5.45,5.45,0,0,1-1.19.43,6,6,0,0,1,1.08-.65A6.14,6.14,0,0,1,268.78,3.8Z"/><path class="cls-36" d="M268.1,9.71a6.21,6.21,0,0,1-1-.59,5.53,5.53,0,0,1-.88-.8,5.5,5.5,0,0,1,1,.59A5.6,5.6,0,0,1,268.1,9.71Z"/><path class="cls-36" d="M270.68,21.43a3.56,3.56,0,0,1-.26.93,3.49,3.49,0,0,1-.49.83,3.56,3.56,0,0,1,.26-.93A3.49,3.49,0,0,1,270.68,21.43Z"/><path class="cls-36" d="M275.61,24.86a5.94,5.94,0,0,1-1.31.25,6.47,6.47,0,0,1-1.32,0,5.75,5.75,0,0,1,1.3-.25A6.56,6.56,0,0,1,275.61,24.86Z"/><path class="cls-36" d="M273.26,29.17a6.23,6.23,0,0,1-1-.67,5.72,5.72,0,0,1-.83-.87,5.73,5.73,0,0,1,1,.67A5.33,5.33,0,0,1,273.26,29.17Z"/><path class="cls-36" d="M267.15,29.94a3.45,3.45,0,0,1,.27-1,3.82,3.82,0,0,1,.49-.85,3.82,3.82,0,0,1-.26.95A3.65,3.65,0,0,1,267.15,29.94Z"/><polygon class="cls-28" points="207.26 48.76 251.52 45.39 234.83 2.53 199.95 29.99 207.26 48.76"/><path class="cls-28" d="M191.57,32.28h11.27a0,0,0,0,1,0,0v20a0,0,0,0,1,0,0H191.57a2.85,2.85,0,0,1-2.85-2.85V35.13A2.85,2.85,0,0,1,191.57,32.28Z" transform="translate(-1.99 73.93) rotate(-21.28)"/><line class="cls-53" x1="227.89" y1="15.33" x2="214.53" y2="24.59"/><circle class="cls-54" cx="217.79" cy="47.63" r="8.53"/></g></g></g></svg>